<svg width="100" height="100" viewBox="0 0 100 100" fill="#2ea7ff" xmlns="http://www.w3.org/2000/svg">
<g clip-path="url(#clip0_3144_2356)">
<path d="M2.05625 64.5813C5.19244 74.834 11.5374 83.8091 20.1571 90.1852C28.7768 96.5614 39.2158 100.002 49.9375 100C77.5875 100 100 77.6125 100 50C100 22.3875 77.5875 3.74865e-06 49.9438 3.74865e-06C37.2517 -0.00490614 25.0321 4.8135 15.7591 13.4795C6.48615 22.1456 0.852899 34.0116 0 46.675L0.01875 46.7125L26.9188 57.7688C29.3449 56.1625 32.2183 55.3681 35.125 55.5L47.375 37.725L47.3687 37.475C47.3737 32.4335 49.3782 27.5999 52.9425 24.0344C56.5068 20.469 61.3398 18.4629 66.3813 18.4563C71.4227 18.4629 76.2557 20.469 79.82 24.0344C83.3843 27.5999 85.3888 32.4335 85.3938 37.475C85.3918 40.0083 84.8845 42.5158 83.9014 44.8505C82.9183 47.1853 81.4793 49.3005 79.6686 51.0722C77.8579 52.8439 75.7119 54.2365 73.3563 55.1686C71.0006 56.1006 68.4827 56.5532 65.95 56.5L48.425 69C48.4844 71.3154 47.9641 73.609 46.9113 75.672C45.8585 77.7351 44.3066 79.5022 42.3968 80.8127C40.487 82.1232 38.2798 82.9354 35.9761 83.1755C33.6724 83.4156 31.3452 83.076 29.2062 82.1875C27.1533 81.332 25.3364 79.9949 23.9091 78.2892C22.4819 76.5834 21.4862 74.5592 21.0063 72.3875L2.0625 64.5813H2.05625Z" fill="#0094FF"/>
<path d="M30.425 79.2688C33.029 80.2627 35.9177 80.2033 38.4785 79.1031C41.0394 78.0028 43.071 75.9484 44.1425 73.3754C45.214 70.8023 45.2411 67.9131 44.218 65.3205C43.195 62.7278 41.2023 60.6356 38.6625 59.4875C36.1443 58.4368 33.319 58.392 30.7688 59.3625L37.1625 62.0125C38.1187 62.4106 38.9871 62.9931 39.7182 63.7268C40.4492 64.4605 41.0286 65.331 41.4233 66.2886C41.8179 67.2462 42.0201 68.2721 42.0183 69.3079C42.0164 70.3436 41.8106 71.3688 41.4125 72.325C41.0144 73.2812 40.4319 74.1496 39.6982 74.8807C38.9646 75.6118 38.0941 76.1912 37.1365 76.5858C36.1789 76.9805 35.1529 77.1826 34.1172 77.1808C33.0814 77.1789 32.0562 76.9731 31.1 76.575L24.9125 74.0125C26.0385 76.3833 28.0021 78.2534 30.425 79.2625V79.2688ZM53.7125 37.475C53.7142 40.8356 55.049 44.0583 57.4242 46.4358C59.7993 48.8133 63.0207 50.1513 66.3813 50.1563C69.7419 50.1513 72.9632 48.8133 75.3383 46.4358C77.7135 44.0583 79.0483 40.8356 79.05 37.475C79.045 34.1166 77.7087 30.8971 75.3339 28.5223C72.9592 26.1476 69.7397 24.8112 66.3813 24.8063C63.0228 24.8112 59.8033 26.1476 57.4286 28.5223C55.0538 30.8971 53.7175 34.1166 53.7125 37.475V37.475ZM66.4 27.9313C67.6508 27.9321 68.8893 28.1793 70.0446 28.6587C71.1999 29.1381 72.2495 29.8404 73.1334 30.7255C74.0173 31.6106 74.7182 32.661 75.1961 33.817C75.674 34.9729 75.9196 36.2117 75.9188 37.4625C75.9179 38.7134 75.6707 39.9518 75.1913 41.1071C74.7119 42.2624 74.0096 43.312 73.1245 44.1959C72.2395 45.0798 71.189 45.7807 70.033 46.2586C68.8771 46.7365 67.6383 46.9821 66.3875 46.9813C63.8613 46.9796 61.4393 45.9745 59.6541 44.187C57.869 42.3996 56.8671 39.9762 56.8688 37.45C56.8704 34.9238 57.8755 32.5018 59.663 30.7167C61.4504 28.9316 63.8738 27.9296 66.4 27.9313V27.9313Z" fill="#0094FF"/>
</g>
<defs>
<clipPath id="clip0_3144_2356">
<rect width="100" height="100" fill="white"/>
</clipPath>
</defs>
</svg>
